<svg width="64" height="64" viewBox="0 0 64 64" fill="none" xmlns="http://www.w3.org/2000/svg">
<rect x="64" y="64" width="64" height="64" rx="32" transform="rotate(180 64 64)" fill="#666666"/>
<path d="M5.88448 46.9189L7.72664 39.2597H10.6637L12.5007 46.9189H10.6015L9.19518 40.3754H9.20556L7.77853 46.9189H5.88448ZM7.34783 45.2273V43.8106H11.0529V45.2273H7.34783ZM16.5181 39.2649C17.0716 39.2649 17.5231 39.3427 17.8725 39.4984C18.2219 39.6541 18.4779 39.872 18.6405 40.1522C18.8065 40.4325 18.8896 40.7559 18.8896 41.1226C18.8896 41.4928 18.8169 41.8111 18.6716 42.0774C18.5263 42.3404 18.343 42.5462 18.1216 42.6949C17.9036 42.8402 17.6805 42.9215 17.4522 42.9388C17.6839 42.9458 17.9261 43.008 18.1786 43.1256C18.4312 43.2433 18.6457 43.4318 18.8221 43.6913C18.9985 43.9507 19.0867 44.2984 19.0867 44.7343C19.0867 45.1391 19.0055 45.5075 18.8429 45.8396C18.6803 46.1682 18.4104 46.4312 18.0333 46.6284C17.6597 46.8221 17.1529 46.9189 16.5129 46.9189H13.3319V39.2649H16.5181ZM15.0963 42.7935L14.4891 42.2954H15.9992C16.359 42.2954 16.6219 42.2158 16.7879 42.0567C16.9575 41.8975 17.0422 41.6917 17.0422 41.4392C17.0422 41.2696 17.0059 41.1278 16.9332 41.0136C16.864 40.8995 16.7551 40.813 16.6063 40.7542C16.4576 40.6954 16.269 40.666 16.0407 40.666H14.2608L15.0963 39.8098V42.7935ZM16.1497 45.5127C16.5025 45.5127 16.7655 45.4296 16.9384 45.2636C17.1114 45.0975 17.1979 44.8831 17.1979 44.6201C17.1979 44.4818 17.1737 44.3555 17.1252 44.2413C17.0803 44.1272 17.0111 44.0286 16.9177 43.9455C16.8277 43.8625 16.7153 43.7985 16.5804 43.7535C16.4455 43.7086 16.2915 43.6861 16.1185 43.6861H14.4891L15.0963 43.1879V46.3689L14.2608 45.5127H16.1497ZM22.785 47.0487C22.228 47.0487 21.7316 46.9587 21.2957 46.7788C20.8598 46.5989 20.5173 46.3326 20.2683 45.9797C20.0192 45.6234 19.8946 45.1806 19.8946 44.6513C19.8946 44.6028 19.8946 44.5561 19.8946 44.5112C19.8946 44.4662 19.8946 44.4178 19.8946 44.3659H21.7472C21.7472 44.4108 21.7472 44.4541 21.7472 44.4956C21.7472 44.5336 21.7472 44.5734 21.7472 44.6149C21.7472 44.9159 21.8337 45.1546 22.0066 45.3311C22.1831 45.5075 22.4477 45.5957 22.8006 45.5957C23.15 45.5957 23.4198 45.5421 23.6101 45.4348C23.8038 45.3276 23.9007 45.1512 23.9007 44.9055C23.9007 44.7291 23.8194 44.57 23.6568 44.4281C23.4977 44.2863 23.2815 44.1566 23.0082 44.0389C22.7349 43.9179 22.427 43.8054 22.0845 43.7016C21.7109 43.584 21.3615 43.4284 21.0363 43.2346C20.7111 43.0374 20.4482 42.7866 20.2475 42.4822C20.0469 42.1743 19.9465 41.7938 19.9465 41.3406C19.9465 40.877 20.0711 40.4826 20.3202 40.1574C20.5727 39.8288 20.9117 39.578 21.3372 39.405C21.7662 39.2286 22.2471 39.1403 22.7798 39.1403C23.3299 39.1403 23.8194 39.2268 24.2484 39.3998C24.6808 39.5728 25.0216 39.8288 25.2706 40.1678C25.5197 40.5068 25.6443 40.9254 25.6443 41.4236C25.6443 41.4755 25.6443 41.5239 25.6443 41.5689C25.6443 41.6139 25.6443 41.6606 25.6443 41.709H23.7969C23.7969 41.6848 23.7969 41.6536 23.7969 41.6156C23.7969 41.5741 23.7969 41.5395 23.7969 41.5118C23.7969 41.2316 23.7191 41.0085 23.5634 40.8424C23.4077 40.6729 23.1535 40.5881 22.8006 40.5881C22.4581 40.5881 22.1935 40.6504 22.0066 40.7749C21.8198 40.8995 21.7264 41.0863 21.7264 41.3354C21.7264 41.5153 21.7991 41.6692 21.9444 41.7972C22.0897 41.9252 22.2886 42.0428 22.5411 42.1501C22.7937 42.2539 23.0808 42.3628 23.4025 42.477C23.8626 42.6361 24.2657 42.8126 24.6116 43.0063C24.9576 43.2 25.2257 43.4422 25.4159 43.7328C25.6062 44.0234 25.7013 44.3953 25.7013 44.8485C25.7013 45.3189 25.5768 45.7185 25.3277 46.0472C25.0821 46.3724 24.7396 46.6214 24.3003 46.7944C23.8609 46.9639 23.3558 47.0487 22.785 47.0487ZM30.0628 47.0487C29.5785 47.0487 29.1201 46.9639 28.6876 46.7944C28.2587 46.6214 27.8799 46.3672 27.5512 46.0316C27.2226 45.696 26.9631 45.2826 26.7728 44.7914C26.586 44.2967 26.4926 43.7276 26.4926 43.0841C26.4926 42.4407 26.586 41.8733 26.7728 41.3821C26.9596 40.8908 27.2156 40.4792 27.5408 40.1471C27.8695 39.8149 28.2483 39.5641 28.6773 39.3946C29.1097 39.2251 29.5715 39.1403 30.0628 39.1403C30.554 39.1403 31.0141 39.2251 31.4431 39.3946C31.8755 39.5641 32.2561 39.8149 32.5847 40.1471C32.9134 40.4792 33.1694 40.8908 33.3527 41.3821C33.5395 41.8733 33.6329 42.4407 33.6329 43.0841C33.6329 43.7276 33.5378 44.2967 33.3475 44.7914C33.1607 45.2826 32.9013 45.696 32.5692 46.0316C32.2405 46.3672 31.86 46.6214 31.4275 46.7944C30.9986 46.9639 30.5436 47.0487 30.0628 47.0487ZM30.0628 45.5905C30.3534 45.5905 30.6267 45.5127 30.8827 45.357C31.1387 45.1979 31.3462 44.9349 31.5054 44.5682C31.668 44.2015 31.7493 43.7068 31.7493 43.0841C31.7493 42.458 31.668 41.965 31.5054 41.6052C31.3428 41.242 31.1335 40.9842 30.8775 40.832C30.6215 40.6764 30.3499 40.5985 30.0628 40.5985C29.7756 40.5985 29.5023 40.6764 29.2429 40.832C28.9869 40.9842 28.7776 41.242 28.615 41.6052C28.4559 41.965 28.3763 42.458 28.3763 43.0841C28.3763 43.7103 28.4559 44.2067 28.615 44.5734C28.7776 44.9367 28.9869 45.1979 29.2429 45.357C29.5023 45.5127 29.7756 45.5905 30.0628 45.5905ZM34.6259 46.9189V39.2649H36.4836V46.3689L35.6481 45.4296H39.2702V46.9189H34.6259ZM45.9483 44.1739C45.9483 45.1356 45.6836 45.8552 45.1543 46.3326C44.6285 46.81 43.9089 47.0487 42.9956 47.0487C42.0823 47.0487 41.3628 46.81 40.8369 46.3326C40.3111 45.8552 40.0482 45.1356 40.0482 44.1739C40.0482 44.0459 40.0482 43.9127 40.0482 43.7743C40.0482 43.6325 40.0482 43.4854 40.0482 43.3332V39.2649H41.9059V43.6134C41.9059 43.7241 41.9059 43.8296 41.9059 43.93C41.9059 44.0303 41.9059 44.1254 41.9059 44.2154C41.9059 44.6789 41.9872 45.0249 42.1498 45.2532C42.3158 45.4815 42.5978 45.5957 42.9956 45.5957C43.3935 45.5957 43.6754 45.4815 43.8415 45.2532C44.011 45.0249 44.0957 44.6789 44.0957 44.2154V39.2649H45.9483V44.1739ZM52.3992 40.666H49.7682L50.5622 39.8098V46.9189H48.7148V39.8098L49.5192 40.666H46.883V39.2649H52.3992V40.666ZM54.3628 40.666L55.1982 39.8098V42.8869L54.7831 42.3784H57.5697V43.7795H54.7831L55.1982 43.2761V46.3741L54.3628 45.5179H58.1457V46.9189H53.3353V39.2649H58.1457V40.666H54.3628ZM18.6172 55.0753C18.6172 55.4143 18.5514 55.7585 18.42 56.1079C18.292 56.4573 18.0965 56.7791 17.8336 57.0731C17.5707 57.3637 17.2368 57.5989 16.8321 57.7788C16.4308 57.9587 15.9551 58.0487 15.4051 58.0487C14.6751 58.0487 14.0507 57.8809 13.5318 57.5453C13.0128 57.2063 12.6167 56.7393 12.3434 56.1442C12.0701 55.5492 11.9335 54.8642 11.9335 54.0893C11.9335 53.3144 12.0701 52.6312 12.3434 52.0396C12.6167 51.4446 13.0128 50.9793 13.5318 50.6437C14.0507 50.3081 14.6751 50.1403 15.4051 50.1403C16.0105 50.1403 16.5277 50.2476 16.9566 50.4621C17.3856 50.6766 17.7298 50.9551 17.9893 51.2975C18.2487 51.64 18.4269 52.0033 18.5238 52.3873C18.586 52.6364 18.6172 52.8768 18.6172 53.1086H16.7594C16.7594 53.0013 16.7525 52.9027 16.7387 52.8128C16.7041 52.5741 16.6297 52.3648 16.5155 52.1849C16.4014 52.0015 16.2509 51.858 16.0641 51.7542C15.8773 51.6504 15.6576 51.5985 15.4051 51.5985C15.1006 51.5985 14.8291 51.6867 14.5904 51.8632C14.3551 52.0361 14.1666 52.306 14.0247 52.6727C13.8864 53.0394 13.8172 53.5116 13.8172 54.0893C13.8172 54.6671 13.8864 55.141 14.0247 55.5112C14.1666 55.8813 14.3551 56.1546 14.5904 56.3311C14.8291 56.5075 15.1006 56.5957 15.4051 56.5957C15.6195 56.5957 15.8098 56.5559 15.9759 56.4764C16.1454 56.3968 16.2872 56.2878 16.4014 56.1494C16.519 56.0076 16.6072 55.845 16.666 55.6616C16.7283 55.4783 16.7594 55.2828 16.7594 55.0753H18.6172ZM19.6003 57.9189V50.2649H21.4269V57.9189H19.6003ZM24.4165 57.9189H22.6107V50.2649H25.4595L27.7998 57.317L27.4625 57.3896V50.2649H29.2632V57.9189H26.3936L24.0532 50.8928L24.4165 50.8201V57.9189ZM31.4928 51.666L32.3283 50.8098V53.8869L31.9132 53.3784H34.6998V54.7795H31.9132L32.3283 54.2761V57.3741L31.4928 56.5179H35.2758V57.9189H30.4654V50.2649H35.2758V51.666H31.4928ZM41.9657 50.2649H45.0896V57.9189H43.3304V51.2975L43.3616 51.3183L42.0228 57.9189H39.6357L38.2658 51.3027L38.2969 51.2872V57.9189H36.5378V50.2649H39.6617L40.8915 57.1354H40.7203L41.9657 50.2649ZM45.9841 57.9189L47.8263 50.2597H50.7634L52.6004 57.9189H50.7011L49.2948 51.3754H49.3052L47.8782 57.9189H45.9841ZM47.4475 56.2273V54.8106H51.1526V56.2273H47.4475Z" fill="white"/>
<path d="M58.2699 14.3358L58.2698 14.3357V14.3404V15.4681C58.2698 16.1798 57.6929 16.7567 56.9812 16.7567C56.3883 16.7567 55.872 16.3523 55.73 15.7767L55.5355 14.9879C55.5002 14.8448 55.4525 14.705 55.393 14.5702L55.0344 13.7579C54.8044 13.2367 54.4814 12.7617 54.0812 12.3562L53.6145 11.8832C53.3882 11.6538 53.1098 11.4828 52.8029 11.3846L51.7237 11.0391C51.6304 11.0093 51.5671 10.9225 51.5671 10.8246C51.5671 10.731 51.6249 10.6472 51.7124 10.6139L51.9534 10.5223C52.0336 10.4918 52.1194 10.4789 52.205 10.4845L52.611 10.5107C53.5113 10.569 54.2399 9.78913 54.1207 8.89485C54.108 8.79994 54.0859 8.70653 54.0545 8.61604L53.2109 6.17925C53.1898 6.11811 53.1747 6.05502 53.1661 5.99091L53.1089 5.56678C53.0962 5.47275 53.1362 5.37936 53.213 5.32368C53.3394 5.23211 53.5175 5.27296 53.5913 5.41044L53.7914 5.78322C54.2005 6.5452 55.3547 6.2715 55.378 5.40697L55.3916 4.90509C55.3932 4.84548 55.4215 4.78976 55.4687 4.75328C55.533 4.70353 55.6212 4.69802 55.6912 4.73938L55.7336 4.76439C55.7994 4.80329 55.8458 4.86821 55.8613 4.94314L55.9989 5.61076C56.0966 6.08444 56.789 6.0329 56.8155 5.54999L56.8172 5.51894C56.82 5.46661 56.8511 5.41997 56.8983 5.39719C56.9704 5.36239 57.0571 5.39311 57.0911 5.46555L57.1929 5.68184C57.2065 5.71075 57.2164 5.74126 57.2224 5.77265L57.3746 6.57213C57.4832 7.14247 58.2846 7.18243 58.4494 6.62571L58.464 6.57656C58.4704 6.55486 58.4822 6.53511 58.4982 6.51911L58.5225 6.4948C58.562 6.45523 58.6262 6.45523 58.6658 6.4948C58.6867 6.51572 58.6974 6.54473 58.6952 6.57423L58.4863 9.28899L58.4863 9.28899L58.4861 9.29265L58.2699 14.3358Z" fill="#CECECE" stroke="#2E2E2E" stroke-width="0.216216"/>
<path d="M8.97721 14.2406L8.97716 14.2406L8.9763 14.244L8.96304 14.2968C8.77283 15.0549 8.12375 15.6096 7.3453 15.6793L6.72856 15.7346C5.88798 15.8099 5.19006 15.0946 5.28599 14.2561C5.30019 14.1321 5.29932 14.0067 5.28341 13.8828L5.07388 12.2516C5.00868 11.744 4.99374 11.2312 5.02929 10.7206C5.06718 10.1765 5.04928 9.63001 4.97586 9.08957L4.86494 8.27298V7.10312V5.83873C4.86494 5.78614 4.8895 5.73657 4.93134 5.70471C5.02739 5.63156 5.16694 5.68022 5.19668 5.79723L5.24499 5.98734C5.39241 6.5674 6.24415 6.47075 6.25786 5.87241L6.29342 4.3196C6.29682 4.1713 6.37549 4.03492 6.50217 3.95774C6.64773 3.86905 6.83165 3.87346 6.9728 3.96901L7.04265 4.01629C7.10439 4.05809 7.1451 4.12451 7.15432 4.1985C7.22625 4.77547 8.07303 4.74255 8.09995 4.16174L8.11088 3.92583C8.11574 3.82099 8.17906 3.72776 8.27472 3.68459L8.35337 3.64909C8.44824 3.60628 8.55794 3.61187 8.64797 3.6641C8.73942 3.71717 8.79906 3.81167 8.80761 3.91705L8.86352 4.60644C8.93563 5.49555 10.1893 5.61642 10.43 4.75747L10.4478 4.69387C10.4651 4.63189 10.4993 4.57592 10.5465 4.53214C10.7215 4.36982 11.0042 4.4272 11.1021 4.64492L11.1126 4.66825C11.1427 4.73514 11.152 4.80951 11.1395 4.88177L10.4882 8.63015L10.4881 8.63034L10.3904 9.19855C10.3123 9.65271 10.5517 10.1021 10.9721 10.2907C11.1578 10.3741 11.3644 10.3993 11.5647 10.3631L11.7009 10.3386C11.8514 10.3114 11.9966 10.2607 12.1314 10.1884L12.6921 9.8872C12.7338 9.86482 12.7838 9.86409 12.8261 9.88525C12.915 9.92969 12.9342 10.0481 12.8639 10.1184L11.9514 11.031C11.8696 11.1127 11.7752 11.1808 11.6718 11.2325L10.855 11.6409C10.643 11.7469 10.4428 11.875 10.2577 12.0231C9.71219 12.4594 9.31602 13.0548 9.1241 13.7265L8.97721 14.2406Z" fill="#CECECE" stroke="#2E2E2E" stroke-width="0.216216"/>
<path d="M29.2612 18.7765L30.6921 19.557C30.965 19.7058 31.2709 19.7838 31.5818 19.7838H32.5583C32.7715 19.7838 32.9838 19.756 33.1899 19.7011L35.5698 19.0664C35.7872 19.0084 36.0005 19.1723 36.0005 19.3973C36.0005 19.527 35.9272 19.6455 35.8112 19.7035L35.6318 19.7932L32.9953 20.8478C32.61 21.0019 32.1989 21.0811 31.784 21.0811H31.4673C30.7371 21.0811 30.0417 20.7688 29.5566 20.2231L28.7935 19.3646C28.7098 19.2705 28.678 19.141 28.7086 19.0188C28.7691 18.7766 29.0421 18.6569 29.2612 18.7765Z" fill="#CECECE" stroke="#2E2E2E" stroke-width="0.216216"/>
<path d="M28.3009 20.7832C28.3904 20.0435 29.2755 19.7107 29.8302 20.2082L30.2406 20.5761C30.4304 20.7464 30.6693 20.8522 30.923 20.8784L31.5833 20.9466C31.9409 20.9835 32.3021 20.9377 32.6392 20.8128L33.5225 20.4853C34.773 20.0218 36.0688 21.0516 35.8996 22.3744V22.3744V30.1112L36.0037 31.8444C36.1756 34.7065 33.8392 37.0916 30.9741 36.9788L30.4183 36.9569C27.2476 36.8321 25.2116 33.5371 26.5184 30.6456V30.6456C26.6787 30.2909 26.792 29.9167 26.8555 29.5326L28.3009 20.7832V20.7832Z" fill="#3F3F3F"/>
<path d="M13.6867 24.1744C14.4442 23.981 15.1009 23.5091 15.5258 22.8529L15.6342 22.6855C16.3005 21.6563 17.443 21.035 18.669 21.035H25.1948C25.4725 21.035 25.7433 20.9486 25.9696 20.7877V20.7877C26.9322 20.1037 28.2442 20.9115 28.0668 22.0789L26.9219 29.6128C26.884 29.8622 26.8255 30.1082 26.747 30.348L26.6373 30.683C25.451 34.3063 22.0703 36.7567 18.2578 36.7567L16.7028 36.7567V36.7567C15.7028 36.7567 14.9064 35.9198 14.9558 34.9211L14.9589 34.8597C14.9992 34.0458 14.49 33.3056 13.7155 33.0522L11.1893 32.2258V32.2258C7.2946 30.6062 4.75684 26.8025 4.75684 22.5845V18.4693V17.235C4.75684 15.9136 5.80337 14.8295 7.12397 14.783V14.783C8.40973 14.7377 9.51211 15.6933 9.64978 16.9725L9.67575 17.2137L9.81428 21.2708C9.88197 23.2531 11.7649 24.6649 13.6867 24.1744V24.1744Z" fill="#505050"/>
<path d="M50.7032 25.0346C50.1824 24.9067 49.6967 24.6646 49.2812 24.3256L48.4851 23.6762C46.8951 22.3791 44.8751 21.728 42.827 21.8526L40.5432 21.9915C40.0631 22.0207 39.5858 21.9008 39.1766 21.6483V21.6483C37.6999 20.737 35.7807 21.6996 35.628 23.4281L35.0767 29.6675C35.0435 30.0436 35.0447 30.422 35.0803 30.7979L35.1449 31.4792C35.4516 34.7163 38.1698 37.1891 41.4214 37.1891H44.396C45.7144 37.1891 46.8448 36.2478 47.0834 34.9513V34.9513C47.3221 33.6547 48.4525 32.7134 49.7709 32.7134H50.726C51.0247 32.7134 51.3224 32.6789 51.6133 32.6106L56.9872 31.348C57.3901 31.2533 57.7611 31.0546 58.063 30.7716V30.7716C58.5399 30.3247 58.8105 29.7002 58.8105 29.0466V19.1244V16.7547C58.8105 15.6823 57.845 14.8681 56.788 15.0493V15.0493C55.9573 15.1917 55.3501 15.9119 55.3501 16.7547V17.8842L55.1712 21.6966C55.0647 23.9677 52.9112 25.5765 50.7032 25.0346V25.0346Z" fill="#505050"/>
<path d="M34.6148 8.98697C34.4471 8.22083 35.2874 7.63297 35.9496 8.05316V8.05316C36.1559 8.18405 36.2987 8.39459 36.344 8.63465L36.4771 9.34027C36.5299 9.62006 36.7605 9.83177 37.0438 9.86052V9.86052C37.3719 9.89384 37.6216 10.1701 37.6216 10.5V14.7674C37.6216 15.455 37.4641 16.1335 37.1612 16.7508L36.1986 18.7129C36.1352 18.8422 36.0112 18.9311 35.8684 18.9498V18.9498C35.5772 18.9878 35.3345 18.7291 35.391 18.4409L36.2117 14.2503C36.247 14.0701 36.1459 13.8909 35.9735 13.8279V13.8279C35.8066 13.7669 35.7058 13.5968 35.7325 13.4211L35.8731 12.4965C35.9407 12.0516 35.8073 11.5996 35.5088 11.2627L35.2323 10.9506C35.0688 10.7661 34.9553 10.5428 34.9026 10.302L34.6148 8.98697Z" fill="#2E2E2E"/>
<path d="M27.35 9.96125L27.3511 9.95371V9.94609V9.47941C27.3511 8.95915 27.5051 8.45053 27.7937 8.01764C28.0481 7.63606 28.3976 7.32747 28.8078 7.12238L29.4535 6.79954L29.4051 6.70285L29.4663 6.79203C30.0593 6.38562 30.772 6.19088 31.4893 6.23922L31.6347 6.24902C31.8255 6.26188 32.0151 6.28986 32.2016 6.3327L33.0726 6.53281C33.8347 6.75861 34.443 7.3354 34.7089 8.08466L35.6463 10.7265C35.8849 11.3991 36.0323 12.1007 36.0845 12.8125L36.1522 13.7369C36.194 14.3068 36.1576 14.8797 36.0441 15.4398L35.7233 17.0233C35.4808 18.2201 34.6228 19.1991 33.4682 19.5965C33.1075 19.7206 32.7287 19.7839 32.3473 19.7839H32.1558C31.6049 19.7839 31.0585 19.6847 30.5427 19.4911L29.8786 19.2417C29.6282 19.1477 29.3886 19.0274 29.1637 18.8827L29.0644 18.8188C28.6095 18.5262 28.2336 18.1263 27.9696 17.6542C27.7952 17.3423 27.6727 17.0042 27.6067 16.6531L27.3145 15.0975C27.0533 13.7068 27.0213 12.2827 27.2197 10.8817L27.35 9.96125Z" fill="#CECECE" stroke="#2E2E2E" stroke-width="0.216216"/>
<path d="M26.0122 9.90707C25.9688 9.55236 26.0028 9.19245 26.112 8.85217V8.85217C26.2236 8.5043 26.4109 8.1855 26.6606 7.91873L27.2914 7.24451C27.4001 7.12843 27.499 7.00368 27.5874 6.87152V6.87152C27.8666 6.45374 28.2488 6.11497 28.6971 5.88791L28.8558 5.80752C29.186 5.64026 29.54 5.52489 29.9053 5.46548L30.2283 5.41295C30.5013 5.36855 30.7782 5.35268 31.0544 5.3656L31.4651 5.3848C31.6577 5.39381 31.8503 5.36907 32.0344 5.3117V5.3117C32.2919 5.23142 32.5652 5.21538 32.8304 5.26497L33.0904 5.31361C33.383 5.36833 33.6462 5.52608 33.8325 5.75825V5.75825C33.9726 5.93303 34.1574 6.06673 34.3673 6.14523L34.6053 6.23426V6.23426C35.1613 6.47689 35.6813 6.79475 36.1508 7.17892L36.5385 7.49615C36.7017 7.62964 36.8498 7.78051 36.9803 7.94608L37.3774 8.45005C37.5 8.60568 37.57 8.79624 37.5773 8.99425L37.5935 9.43317C37.6079 9.82326 37.2496 10.1216 36.8685 10.0368V10.0368C36.6179 9.98096 36.4313 9.77092 36.4052 9.5155L36.3753 9.22135C36.3507 8.97951 36.2393 8.75478 36.0617 8.58875L35.555 8.1149L35.2591 7.81054C35.0852 7.63166 34.8821 7.4837 34.6585 7.37302L34.3316 7.21119C34.146 7.1193 33.9352 7.08613 33.7302 7.11562V7.11562C33.4688 7.15323 33.2009 7.08766 32.9873 6.9323V6.9323C32.8754 6.85089 32.748 6.79326 32.6129 6.76296L31.421 6.49546V6.49546C30.6693 6.42851 29.9215 6.66027 29.3394 7.14057L29.2982 7.17458L28.264 7.91845C27.9905 8.11519 27.7772 8.38414 27.6478 8.69522V8.69522C27.5214 8.99915 27.48 9.33173 27.528 9.65737L27.642 10.4302C27.6658 10.5914 27.6551 10.7557 27.6108 10.9124L27.2947 12.0288C27.1801 12.4337 26.6612 12.5486 26.3863 12.2299V12.2299C26.318 12.1507 26.2747 12.0529 26.262 11.949L26.0122 9.90707Z" fill="#E7E7E7"/>
</svg>
